<?xml version="1.0" encoding="UTF-8"?>
<svg width="256" height="256" viewBox="0 0 256 256" xmlns="http://www.w3.org/2000/svg">
  <defs>
    <linearGradient id="g" x1="0" y1="0" x2="1" y2="1">
      <stop offset="0%" stop-color="#2563eb"/>
      <stop offset="100%" stop-color="#60a5fa"/>
    </linearGradient>
  </defs>
  <rect width="256" height="256" rx="56" fill="url(#g)"/>
  <g transform="translate(28,28)" fill="#ffffff">
    <!-- Minimal paw -->
    <circle cx="56" cy="56" r="16"/>
    <circle cx="108" cy="48" r="14"/>
    <circle cx="156" cy="56" r="16"/>
    <circle cx="132" cy="84" r="12"/>
    <path d="M64 140c0-28 24-44 60-44s60 16 60 44c0 28-24 44-60 44s-60-16-60-44z"/>
    <!-- Small medical cross inside heart -->
    <path d="M154 92c10 0 18 8 18 18 0 15-18 26-18 26s-18-11-18-26c0-10 8-18 18-18z" fill-opacity="0.9"/>
    <rect x="150" y="100" width="8" height="28" rx="2"/>
    <rect x="140" y="110" width="28" height="8" rx="2"/>
  </g>
</svg>
